<?xml version="1.0" encoding="UTF-8" standalone="no"?>
<!-- Created with Inkscape (http://www.inkscape.org/) -->

<svg
   xmlns:dc="http://purl.org/dc/elements/1.1/"
   xmlns:cc="http://creativecommons.org/ns#"
   xmlns:rdf="http://www.w3.org/1999/02/22-rdf-syntax-ns#"
   xmlns:svg="http://www.w3.org/2000/svg"
   xmlns="http://www.w3.org/2000/svg"
   xmlns:sodipodi="http://sodipodi.sourceforge.net/DTD/sodipodi-0.dtd"
   xmlns:inkscape="http://www.inkscape.org/namespaces/inkscape"
   width="77mm"
   height="78mm"
   viewBox="0 0 77 78"
   version="1.1"
   id="svg3753"
   sodipodi:docname="logo_armik5.svg"
   inkscape:version="0.92.2 (5c3e80d, 2017-08-06)">
  <defs
     id="defs3747">
    <inkscape:path-effect
       effect="powerstroke"
       id="path-effect4736"
       is_visible="true"
       offset_points="0,0.13229166"
       sort_points="true"
       interpolator_type="CubicBezierJohan"
       interpolator_beta="0.2"
       start_linecap_type="zerowidth"
       linejoin_type="extrp_arc"
       miter_limit="4"
       end_linecap_type="zerowidth" />
  </defs>
  <sodipodi:namedview
     id="base"
     pagecolor="#ffffff"
     bordercolor="#666666"
     borderopacity="1.0"
     inkscape:pageopacity="0.0"
     inkscape:pageshadow="2"
     inkscape:zoom="0.35"
     inkscape:cx="422.85714"
     inkscape:cy="537.14286"
     inkscape:document-units="mm"
     inkscape:current-layer="layer1"
     showgrid="false"
     inkscape:window-width="1366"
     inkscape:window-height="705"
     inkscape:window-x="-8"
     inkscape:window-y="-8"
     inkscape:window-maximized="1"
     inkscape:snap-text-baseline="true"
     inkscape:object-paths="false"
     units="mm"
     width="63mm" />
  <metadata
     id="metadata3750">
    <rdf:RDF>
      <cc:Work
         rdf:about="">
        <dc:format>image/svg+xml</dc:format>
        <dc:type
           rdf:resource="http://purl.org/dc/dcmitype/StillImage" />
        <dc:title></dc:title>
      </cc:Work>
    </rdf:RDF>
  </metadata>
  <g
     inkscape:label="Capa 1"
     inkscape:groupmode="layer"
     id="layer1"
     transform="translate(0,-219)">
    <flowRoot
       xml:space="preserve"
       id="flowRoot3899"
       style="font-style:normal;font-weight:normal;font-size:40px;line-height:1.25;font-family:sans-serif;letter-spacing:0px;word-spacing:0px;fill:#000000;fill-opacity:1;stroke:none"><flowRegion
         id="flowRegion3901"><rect
           id="rect3903"
           width="325.71429"
           height="97.14286"
           x="325.71429"
           y="308.23398" /></flowRegion><flowPara
         id="flowPara3905"></flowPara></flowRoot>    <flowRoot
       xml:space="preserve"
       id="flowRoot3907"
       style="font-style:normal;font-weight:normal;font-size:40px;line-height:1.25;font-family:sans-serif;letter-spacing:0px;word-spacing:0px;fill:#000000;fill-opacity:1;stroke:none"
       transform="scale(0.26458333)"><flowRegion
         id="flowRegion3909"><rect
           id="rect3911"
           width="64.749329"
           height="124.60741"
           x="300"
           y="257.91226" /></flowRegion><flowPara
         id="flowPara3913"></flowPara></flowRoot>    <flowRoot
       xml:space="preserve"
       id="flowRoot3915"
       style="font-style:normal;font-weight:normal;font-size:40px;line-height:1.25;font-family:sans-serif;letter-spacing:0px;word-spacing:0px;fill:#000000;fill-opacity:1;stroke:none"
       transform="scale(0.26458333)"><flowRegion
         id="flowRegion3917"><rect
           id="rect3919"
           width="63.822113"
           height="150.32172"
           x="364.74933"
           y="257.91226" /></flowRegion><flowPara
         id="flowPara3921"></flowPara></flowRoot>    <path
       style="fill:#b3b3b3;fill-rule:nonzero;stroke:none;stroke-width:0.26458332px;stroke-linecap:butt;stroke-linejoin:miter;stroke-opacity:1"
       d="m 71.815475,139.7619 c 0,0 -0.08225,-0.10362 -0.08225,-0.10362 -3.561229,2.82688 -7.479743,6.88496 -10.514716,13.06218 -2.262642,4.60525 -3.689655,9.63768 -4.781725,15.28883 -1.239823,6.41573 -1.992762,13.1065 -3.016047,18.94187 -1.083384,6.1781 -2.24815,10.46846 -3.527881,14.04288 1.282523,-3.58222 2.457492,-7.85182 3.568585,-14.03565 1.047982,-5.83259 1.834361,-12.52181 3.105168,-18.92367 1.119769,-5.64099 2.569129,-10.64744 4.842267,-15.22018 3.046999,-6.12947 6.951208,-10.14087 10.488847,-12.94902 0,0 -0.08225,-0.10362 -0.08225,-0.10362 z"
       id="path4734"
       inkscape:connector-curvature="0"
       inkscape:path-effect="#path-effect4736"
       inkscape:original-d="M 71.815475,139.7619 C 52.458331,155.12745 57.643418,179.34592 49.892857,200.99404" />
    <g
       id="g4788"
       transform="translate(-67.675246,55.733471)">
      <path
         style="fill:#f4f4f4;stroke-width:0.26458335"
         d="m 67.29866,201.75 v -38.62917 h 39.29063 39.29062 V 201.75 240.37916 H 106.58929 67.29866 Z m 44.84688,34.92684 c 8.88664,-1.45365 17.45586,-6.68752 23.17881,-14.15705 9.14045,-11.93003 9.40902,-28.93676 0.66644,-42.20104 -1.15378,-1.75053 -5.47558,-6.36122 -7.30879,-7.79736 -1.48696,-1.16488 -5.69151,-3.66065 -7.35292,-4.3646 -2.40771,-1.02016 -6.63975,-2.28044 -9.05125,-2.69541 -2.69652,-0.46402 -10.73349,-0.45746 -13.096877,0.0107 -12.560723,2.4881 -23.557565,12.12411 -27.360592,23.97479 -1.334165,4.15742 -1.699998,6.50398 -1.691208,10.84792 0.022,10.86975 3.535523,19.28871 11.138752,26.69019 5.446535,5.30202 12.239434,8.51383 20.691175,9.78319 1.44902,0.21763 8.69484,0.15266 10.18646,-0.0913 z m -12.460638,-1.06047 c -6.531492,-1.13191 -12.091289,-3.90972 -17.219901,-8.60348 -4.607845,-4.21715 -7.828903,-9.05268 -9.590025,-14.39679 -1.365782,-4.14445 -1.718066,-6.52539 -1.725188,-11.65985 -0.007,-5.02698 0.361667,-7.64914 1.611122,-11.46001 0.637217,-1.94353 3.084595,-7.08535 3.753974,-7.88691 0.167434,-0.2005 0.797449,-1.01939 1.400033,-1.81975 2.217739,-2.94565 6.332536,-6.78993 9.581044,-8.95117 3.170222,-2.10915 7.939741,-3.94625 12.185134,-4.6934 2.950885,-0.51933 10.548435,-0.50177 13.427405,0.031 7.12577,1.31874 12.59859,4.27029 18.1067,9.76512 5.49801,5.48474 8.42913,10.92168 9.75742,18.099 0.54897,2.96632 0.5492,10.27674 5.3e-4,13.42987 -1.19249,6.85172 -4.15141,12.56725 -9.18381,17.73969 -5.49058,5.64338 -10.64431,8.60903 -17.65932,10.16184 -3.68864,0.8165 -10.4818,0.93163 -14.445007,0.24481 z m 13.494278,-0.64136 c 4.74594,-1.05545 8.66282,-2.71781 12.45897,-5.2877 7.41176,-5.01757 12.65131,-12.70937 14.54962,-21.35925 0.68374,-3.11552 0.82743,-9.65128 0.28476,-12.9524 -0.83319,-5.0684 -2.60556,-9.49981 -5.64297,-14.10901 -1.63901,-2.48717 -6.56858,-7.36527 -9.19816,-9.10213 -5.96598,-3.94059 -12.38598,-5.86484 -19.57128,-5.86607 -9.420673,-0.002 -17.912445,3.59115 -24.606251,10.41056 -4.790559,4.88045 -7.823577,10.47829 -9.140891,16.87073 -2.43153,11.79932 0.971353,23.2723 9.446841,31.85046 5.247524,5.3111 11.593345,8.5437 19.273221,9.81789 2.68446,0.4454 9.61624,0.28955 12.14614,-0.27308 z m -10.42635,-0.82921 c -0.3638,-0.0625 -1.4949,-0.24714 -2.51354,-0.41039 -7.076222,-1.13404 -14.500633,-5.3903 -19.25851,-11.0405 -3.592458,-4.26622 -5.716855,-8.36224 -7.125709,-13.73901 -0.752299,-2.87108 -0.815192,-3.4535 -0.835284,-7.73507 -0.02399,-5.11229 0.307757,-7.27851 1.742343,-11.37708 3.929503,-11.2265 13.975595,-19.79478 25.59127,-21.82672 3.00098,-0.52497 9.11424,-0.51875 11.91269,0.0121 13.56104,2.57249 23.97902,12.84681 26.75189,26.383 0.70641,3.44844 0.76746,8.80748 0.13935,12.23266 -2.43143,13.25907 -12.04641,23.48172 -25.15971,26.74986 -2.05993,0.51338 -3.52468,0.68213 -6.61458,0.76206 -2.18282,0.0565 -4.26641,0.0515 -4.63021,-0.0109 z m 8.87785,-2.64007 c 13.79635,-2.40589 24.07144,-13.58374 25.5649,-27.81104 1.67762,-15.98163 -10.14543,-31.15125 -26.16037,-33.56519 -10.31605,-1.55494 -20.181257,1.80526 -27.358756,9.31871 -11.106334,11.62617 -11.517745,29.63369 -0.955406,41.81824 4.581145,5.28474 11.061481,9.00177 17.823902,10.22356 2.81862,0.50925 8.21177,0.51689 11.08573,0.0157 z m -7.55494,-2.7985 c -4.07426,-0.40676 -7.246499,-1.44687 -8.26234,-2.70904 -1.088332,-1.35224 -0.0885,-3.01534 1.658625,-2.75891 0.512643,0.0752 0.763508,0.014 0.689835,-0.16834 -0.06368,-0.15761 -0.662517,-1.61498 -1.330756,-3.23859 -1.046319,-2.54224 -2.320119,-6.8339 -2.593999,-8.73967 -0.104963,-0.73039 -6.028658,-7.34212 -6.313793,-7.04715 -0.312768,0.32357 -0.967789,3.0901 -1.328437,5.61076 -0.395596,2.76493 -0.197397,5.55961 0.523617,7.38319 0.933157,2.36013 0.5647,4.21015 -0.703348,3.53151 -1.929264,-1.03251 -5.500637,-6.55681 -6.950483,-10.7512 -1.215062,-3.51517 -1.110447,-7.01146 0.209795,-7.01146 0.50234,0 1.359125,0.78427 1.834014,1.67879 0.209222,0.3941 0.440827,-0.0707 1.20192,-2.41209 3.114436,-9.58109 6.888945,-16.29948 12.002237,-21.36323 4.728546,-4.68274 11.346103,-8.59514 14.538093,-8.59514 0.99013,0 1.23346,0.10335 1.47104,0.62479 0.35239,0.77342 0.0175,1.47623 -2.28653,4.79917 -3.21759,4.64043 -5.55838,10.07735 -6.77779,15.74271 -0.78801,3.66107 -0.86024,11.03942 -0.14317,14.62481 1.40972,7.04865 5.85272,14.65128 9.69605,16.59139 1.73566,0.87616 3.18418,2.01375 3.18418,2.50069 0,0.64506 -1.08829,1.30402 -2.71746,1.64544 -1.82386,0.38221 -4.19715,0.40143 -7.6013,0.0616 z m -9.487054,-28.45421 c 0.197651,-3.3783 0.954325,-7.13926 2.489848,-12.37553 0.592095,-2.0191 0.499782,-2.21985 -0.552003,-1.20042 -1.208326,1.17116 -3.261935,4.1575 -4.360954,6.34168 -0.95422,1.8964 -2.112749,5.11324 -2.112749,5.86637 0,0.57906 3.66376,4.50961 4.07635,4.37319 0.171511,-0.0567 0.358577,-1.28015 0.459508,-3.00529 z m 22.803664,21.9231 c -4.3407,-1.5444 -8.87443,-7.70653 -10.94036,-14.86987 -1.26199,-4.37578 -0.92982,-12.86735 0.7075,-18.0863 1.85989,-5.92842 5.2971,-10.98415 8.40129,-12.35728 2.49361,-1.10304 6.46185,-0.89468 8.53261,0.44802 1.93428,1.25421 2.53609,2.57224 2.95146,6.46405 0.2148,2.01249 0.3492,2.40608 1.20405,3.52599 1.08771,1.42498 1.17571,1.95621 0.46868,2.82936 -0.40041,0.49448 -0.74108,0.60581 -1.80472,0.58976 -2.91828,-0.044 -5.3725,-2.40189 -5.37609,-5.16504 -0.003,-2.57898 -0.91237,-3.91315 -2.66618,-3.91315 -1.57747,0 -3.36075,2.50916 -4.0429,5.68854 l -0.1703,0.79375 0.40617,-0.7276 c 0.22339,-0.40018 0.50158,-0.7276 0.6182,-0.7276 0.43772,0 0.54901,0.36205 0.23179,0.75404 -0.20953,0.25893 -0.21873,0.34014 -0.0254,0.22431 0.16665,-0.0999 0.37417,0.004 0.46115,0.23056 0.087,0.22667 0.26695,0.34488 0.39992,0.2627 0.13298,-0.0822 0.17946,0.0889 0.1033,0.3801 -0.0762,0.29125 -0.0129,0.52954 0.14053,0.52954 0.15345,0 0.2895,0.20836 0.30234,0.46302 0.15811,3.13595 0.11425,3.49246 -0.51161,4.15865 -0.34618,0.36849 -0.52838,0.66999 -0.40489,0.66999 0.3687,0 -1.0008,1.34327 -1.78594,1.75173 -0.70794,0.3683 -0.72858,0.35868 -0.7638,-0.35587 -0.0199,-0.40392 -0.13179,0.0395 -0.24861,0.98539 -0.11801,0.95552 -0.0991,2.91303 0.0425,4.40485 0.3976,4.18872 1.24938,6.56452 3.08002,8.59082 1.29816,1.4369 2.64694,2.08558 4.3365,2.08558 1.24655,0 1.46314,-0.0933 2.32808,-1.00251 0.57679,-0.60633 1.24927,-1.78262 1.70168,-2.97656 2.17657,-5.74414 2.17537,-5.74249 3.77235,-5.22108 1.90371,0.62155 2.32368,2.41392 1.54437,6.59124 -1.26146,6.7618 -3.6334,10.97672 -7.12795,12.6663 -1.74412,0.84325 -4.03452,0.96609 -5.86569,0.31457 z"
         id="path4792"
         inkscape:connector-curvature="0" />
      <path
         style="fill:#515151;stroke-width:0.26458335"
         d="m 101.95908,236.76817 c -4.636441,-0.69634 -7.944299,-1.67702 -11.516303,-3.41421 -7.054896,-3.43106 -12.952918,-9.15791 -16.344521,-15.87018 -2.839474,-5.61957 -3.955471,-10.45262 -3.969103,-17.18899 -0.0088,-4.34394 0.357043,-6.6905 1.691208,-10.84792 3.803027,-11.85068 14.799869,-21.48669 27.360592,-23.97479 2.363387,-0.46816 10.400357,-0.47472 13.096877,-0.0107 2.4115,0.41497 6.64354,1.67525 9.05125,2.69541 1.66141,0.70395 5.86596,3.19972 7.35292,4.3646 1.83321,1.43614 6.15501,6.04683 7.30879,7.79736 6.94816,10.54178 8.33292,23.59775 3.67537,34.65271 -4.71563,11.19281 -15.56509,19.74973 -27.52062,21.70538 -1.49162,0.24399 -8.73744,0.30896 -10.18646,0.0913 z m 12.17083,-1.39661 c 7.01501,-1.55281 12.16873,-4.51846 17.65932,-10.16184 3.96285,-4.07312 6.19483,-7.67219 7.87519,-12.69873 1.31923,-3.94628 1.71758,-6.68871 1.71758,-11.82476 0,-10.38322 -2.93777,-17.53348 -10.1668,-24.74507 -5.50811,-5.49483 -10.98093,-8.44638 -18.1067,-9.76512 -2.87897,-0.5328 -10.47652,-0.55036 -13.427405,-0.031 -4.245393,0.74715 -9.014912,2.58425 -12.185134,4.6934 -3.248508,2.16124 -7.363305,6.00552 -9.581044,8.95117 -0.602584,0.80036 -1.232599,1.61925 -1.400033,1.81975 -0.669379,0.80156 -3.116757,5.94338 -3.753974,7.88691 -1.249455,3.81087 -1.618095,6.43303 -1.611122,11.46001 0.0071,5.13446 0.359406,7.5154 1.725188,11.65985 1.761122,5.34411 4.98218,10.17964 9.590025,14.39679 5.128612,4.69376 10.688409,7.47157 17.219901,8.60348 3.963198,0.68682 10.756368,0.57169 14.445008,-0.24481 z m -13.09687,-0.12347 C 93.353164,233.9739 87.007343,230.7413 81.759819,225.4302 74.686756,218.27145 71.166811,209.28379 71.604867,199.50104 c 0.402198,-8.98199 3.63366,-16.46006 9.849002,-22.79203 6.693806,-6.81941 15.185578,-10.41216 24.606251,-10.41056 7.1853,0.001 13.6053,1.92548 19.57128,5.86607 2.62958,1.73686 7.55915,6.61496 9.19816,9.10213 3.03741,4.6092 4.80978,9.04061 5.64297,14.10901 0.54267,3.30112 0.39898,9.83688 -0.28476,12.9524 -1.89831,8.64988 -7.13786,16.34168 -14.54962,21.35925 -3.79615,2.56989 -7.71303,4.23225 -12.45897,5.2877 -2.5299,0.56263 -9.46168,0.71848 -12.14614,0.27308 z m 12.96458,-1.85344 c 13.1133,-3.26814 22.72828,-13.49079 25.15971,-26.74986 0.62811,-3.42517 0.56706,-8.78422 -0.13935,-12.23266 -2.77287,-13.53619 -13.19085,-23.81051 -26.75189,-26.383 -2.79845,-0.53085 -8.91171,-0.53707 -11.91269,-0.0121 -11.615675,2.03194 -21.661767,10.60022 -25.59127,21.82672 -1.434586,4.09857 -1.766332,6.26479 -1.742343,11.37708 0.02009,4.28157 0.08299,4.86399 0.835284,7.73507 1.408854,5.37677 3.533251,9.47279 7.125709,13.73901 4.757877,5.6502 12.182288,9.90646 19.25851,11.0405 1.01864,0.16325 2.14974,0.34792 2.51354,0.41039 0.3638,0.0625 2.44739,0.0674 4.63021,0.0109 3.0899,-0.0799 4.55465,-0.24868 6.61458,-0.76206 z m -13.45267,-1.90464 c -6.762421,-1.22179 -13.242757,-4.93882 -17.823902,-10.22356 -9.179478,-10.5893 -10.207875,-25.9374 -2.512916,-37.50349 6.818173,-10.24822 18.629762,-15.47196 30.827078,-13.63346 16.01494,2.41394 27.83799,17.58356 26.16037,33.56519 -0.94552,9.00736 -5.19659,16.69001 -12.11068,21.88676 -4.10997,3.08913 -8.64346,5.08535 -13.45422,5.92428 -2.87396,0.50117 -8.26711,0.49353 -11.08573,-0.0157 z m 11.13209,-2.84435 c 1.62917,-0.34142 2.71746,-1.00038 2.71746,-1.64544 0,-0.48694 -1.44852,-1.62453 -3.18418,-2.50069 -3.84333,-1.94011 -8.28633,-9.54274 -9.69605,-16.59139 -0.71707,-3.58539 -0.64484,-10.96374 0.14317,-14.62481 1.21941,-5.66536 3.5602,-11.10228 6.77779,-15.74271 2.30408,-3.32294 2.63892,-4.02575 2.28653,-4.79917 -1.10433,-2.42374 -9.97087,1.99058 -16.009133,7.97035 -5.113292,5.06375 -8.887801,11.78214 -12.002237,21.36323 -0.761093,2.34139 -0.992698,2.80619 -1.20192,2.41209 -1.565066,-2.94802 -3.296397,-1.77993 -2.826701,1.90711 0.511877,4.01816 3.157268,9.47887 6.185986,12.76934 1.33166,1.44675 1.919748,1.77618 2.42386,1.35781 0.540218,-0.44835 0.470299,-1.85457 -0.173123,-3.4819 -0.721014,-1.82358 -0.919213,-4.61826 -0.523617,-7.38319 0.360648,-2.52066 1.015669,-5.28719 1.328437,-5.61076 0.285135,-0.29497 6.20883,6.31676 6.313793,7.04715 0.27388,1.90577 1.54768,6.19743 2.593999,8.73967 0.668239,1.62361 1.267079,3.08098 1.330756,3.23859 0.07367,0.18236 -0.177192,0.24358 -0.689835,0.16834 -1.747121,-0.25643 -2.746957,1.40667 -1.658625,2.75891 1.728258,2.14734 10.92564,3.68228 15.86364,2.64747 z M 91.946366,201.36055 c -1.041446,-1.09637 -1.893538,-2.21031 -1.893538,-2.47543 0,-0.75313 1.158529,-3.96997 2.112749,-5.86637 1.099019,-2.18418 3.152628,-5.17052 4.360954,-6.34168 1.051785,-1.01943 1.144098,-0.81868 0.552003,1.20042 -1.535523,5.23627 -2.292197,8.99723 -2.489848,12.37553 -0.100931,1.72514 -0.287997,2.94857 -0.459508,3.00529 -0.159101,0.0526 -1.141367,-0.80138 -2.182812,-1.89776 z m 31.311674,20.501 c 3.49455,-1.68958 5.86649,-5.9045 7.12795,-12.6663 0.77931,-4.17732 0.35934,-5.96969 -1.54437,-6.59124 -1.59698,-0.52141 -1.59578,-0.52306 -3.77235,5.22108 -0.45241,1.19394 -1.12489,2.37023 -1.70168,2.97656 -0.86494,0.90924 -1.08153,1.00251 -2.32808,1.00251 -3.00722,0 -5.51863,-2.44939 -6.74186,-6.57536 -0.59229,-1.99782 -0.96903,-6.46633 -0.71713,-8.50589 0.11682,-0.94588 0.2287,-1.38931 0.24861,-0.98539 0.0352,0.71455 0.0559,0.72417 0.7638,0.35587 0.78514,-0.40846 2.15464,-1.75173 1.78594,-1.75173 -0.12349,0 0.0587,-0.3015 0.40489,-0.66999 0.62586,-0.66619 0.66972,-1.0227 0.51161,-4.15865 -0.0128,-0.25466 -0.14889,-0.46302 -0.30234,-0.46302 -0.15345,0 -0.21669,-0.23829 -0.14053,-0.52954 0.0762,-0.29124 0.0297,-0.46229 -0.1033,-0.3801 -0.13297,0.0822 -0.31294,-0.036 -0.39992,-0.2627 -0.087,-0.22667 -0.2945,-0.33042 -0.46115,-0.23056 -0.19331,0.11583 -0.18411,0.0346 0.0254,-0.22431 0.31722,-0.39199 0.20593,-0.75404 -0.23179,-0.75404 -0.11662,0 -0.39481,0.32742 -0.6182,0.7276 l -0.40617,0.7276 0.1703,-0.79375 c 0.68215,-3.17938 2.46543,-5.68854 4.0429,-5.68854 1.75381,0 2.66283,1.33417 2.66618,3.91315 0.004,2.76315 2.45781,5.12102 5.37609,5.16504 1.06364,0.016 1.40431,-0.0953 1.80472,-0.58976 0.70703,-0.87315 0.61903,-1.40438 -0.46868,-2.82936 -0.85485,-1.11991 -0.98925,-1.5135 -1.20405,-3.52599 -0.41537,-3.89181 -1.01718,-5.20984 -2.95146,-6.46405 -2.07076,-1.3427 -6.039,-1.55106 -8.53261,-0.44802 -3.10419,1.37313 -6.5414,6.42886 -8.40129,12.35728 -1.63732,5.21895 -1.96949,13.71052 -0.7075,18.0863 1.56257,5.41802 4.87494,10.83646 8.12413,13.28962 2.82931,2.13616 5.94274,2.59004 8.68192,1.26568 z"
         id="path4790"
         inkscape:connector-curvature="0" />
    </g>
  </g>
</svg>
